<svg xmlns="http://www.w3.org/2000/svg" viewBox="0 0 1920 1080"><g transform="
          rotate(123 960 540) 
          translate(-994.1845762412831 -559.2288241357217)
          scale(2.03560893358467)
        "><rect width="1920" height="1080" fill="rgb(124, 194, 255)"></rect><g transform="translate(0, 0)"><path fill="rgb(116, 185, 255)" fill-opacity="1" d="M0,264.707L5.079,262.556C10.159,260.405,20.317,256.103,30.476,255.436C40.635,254.769,50.794,257.737,60.952,258.071C71.111,258.405,81.27,256.104,91.429,227.387C101.587,198.67,111.746,143.537,121.905,138.881C132.063,134.225,142.222,180.045,152.381,166.002C162.54,151.959,172.698,78.052,182.857,73.86C193.016,69.669,203.175,135.193,213.333,151.514C223.492,167.835,233.651,134.953,243.81,104.517C253.968,74.081,264.127,46.091,274.286,60.539C284.444,74.987,294.603,131.872,304.762,142.129C314.921,152.386,325.079,116.015,335.238,97.811C345.397,79.606,355.556,79.568,365.714,105.956C375.873,132.344,386.032,185.158,396.19,213.523C406.349,241.888,416.508,245.804,426.667,213.506C436.825,181.208,446.984,112.697,457.143,84.467C467.302,56.237,477.46,68.289,487.619,94.704C497.778,121.12,507.937,161.899,518.095,190.747C528.254,219.596,538.413,236.513,548.571,225.386C558.73,214.259,568.889,175.089,579.048,135.235C589.206,95.38,599.365,54.842,609.524,32.523C619.683,10.205,629.841,6.106,640,30.809C650.159,55.513,660.317,109.018,670.476,125.837C680.635,142.655,690.794,122.785,700.952,102.133C711.111,81.481,721.27,60.047,731.429,54.191C741.587,48.336,751.746,58.059,761.905,64.956C772.063,71.853,782.222,75.924,792.381,99.792C802.54,123.66,812.698,167.326,822.857,197.063C833.016,226.799,843.175,242.607,853.333,252.089C863.492,261.571,873.651,264.727,883.81,246.468C893.968,228.209,904.127,188.536,914.286,156.971C924.444,125.406,934.603,101.95,944.762,81.477C954.921,61.005,965.079,43.517,975.238,69.355C985.397,95.193,995.556,164.359,1005.714,204.125C1015.873,243.892,1026.032,254.26,1036.19,259.811C1046.349,265.363,1056.508,266.098,1066.667,250.711C1076.825,235.324,1086.984,203.814,1097.143,184.138C1107.302,164.461,1117.46,156.619,1127.619,140.594C1137.778,124.569,1147.937,100.363,1158.095,119.482C1168.254,138.602,1178.413,201.049,1188.571,227.091C1198.73,253.132,1208.889,242.768,1219.048,239.822C1229.206,236.876,1239.365,241.347,1249.524,236.16C1259.683,230.973,1269.841,216.127,1280,179.092C1290.159,142.057,1300.317,82.831,1310.476,89.924C1320.635,97.016,1330.794,170.425,1340.952,187.104C1351.111,203.782,1361.27,163.73,1371.429,129.672C1381.587,95.615,1391.746,67.551,1401.905,66.973C1412.063,66.395,1422.222,93.301,1432.381,130.795C1442.54,168.289,1452.698,216.371,1462.857,219.254C1473.016,222.138,1483.175,179.824,1493.333,154.89C1503.492,129.955,1513.651,122.4,1523.81,102.323C1533.968,82.245,1544.127,49.645,1554.286,32.959C1564.444,16.273,1574.603,15.5,1584.762,30.178C1594.921,44.856,1605.079,74.985,1615.238,115.818C1625.397,156.651,1635.556,208.188,1645.714,225.663C1655.873,243.138,1666.032,226.552,1676.19,189.413C1686.349,152.273,1696.508,94.582,1706.667,101.681C1716.825,108.779,1726.984,180.667,1737.143,191.897C1747.302,203.126,1757.46,153.697,1767.619,142.112C1777.778,130.528,1787.937,156.788,1798.095,158.406C1808.254,160.024,1818.413,136.999,1828.571,139.703C1838.73,142.408,1848.889,170.841,1859.048,184.672C1869.206,198.504,1879.365,197.732,1889.524,184.466C1899.683,171.2,1909.841,145.44,1914.921,132.56L1920,119.679L1920,1080L1914.921,1080C1909.841,1080,1899.683,1080,1889.524,1080C1879.365,1080,1869.206,1080,1859.048,1080C1848.889,1080,1838.73,1080,1828.571,1080C1818.413,1080,1808.254,1080,1798.095,1080C1787.937,1080,1777.778,1080,1767.619,1080C1757.46,1080,1747.302,1080,1737.143,1080C1726.984,1080,1716.825,1080,1706.667,1080C1696.508,1080,1686.349,1080,1676.19,1080C1666.032,1080,1655.873,1080,1645.714,1080C1635.556,1080,1625.397,1080,1615.238,1080C1605.079,1080,1594.921,1080,1584.762,1080C1574.603,1080,1564.444,1080,1554.286,1080C1544.127,1080,1533.968,1080,1523.81,1080C1513.651,1080,1503.492,1080,1493.333,1080C1483.175,1080,1473.016,1080,1462.857,1080C1452.698,1080,1442.54,1080,1432.381,1080C1422.222,1080,1412.063,1080,1401.905,1080C1391.746,1080,1381.587,1080,1371.429,1080C1361.27,1080,1351.111,1080,1340.952,1080C1330.794,1080,1320.635,1080,1310.476,1080C1300.317,1080,1290.159,1080,1280,1080C1269.841,1080,1259.683,1080,1249.524,1080C1239.365,1080,1229.206,1080,1219.048,1080C1208.889,1080,1198.73,1080,1188.571,1080C1178.413,1080,1168.254,1080,1158.095,1080C1147.937,1080,1137.778,1080,1127.619,1080C1117.46,1080,1107.302,1080,1097.143,1080C1086.984,1080,1076.825,1080,1066.667,1080C1056.508,1080,1046.349,1080,1036.19,1080C1026.032,1080,1015.873,1080,1005.714,1080C995.556,1080,985.397,1080,975.238,1080C965.079,1080,954.921,1080,944.762,1080C934.603,1080,924.444,1080,914.286,1080C904.127,1080,893.968,1080,883.81,1080C873.651,1080,863.492,1080,853.333,1080C843.175,1080,833.016,1080,822.857,1080C812.698,1080,802.54,1080,792.381,1080C782.222,1080,772.063,1080,761.905,1080C751.746,1080,741.587,1080,731.429,1080C721.27,1080,711.111,1080,700.952,1080C690.794,1080,680.635,1080,670.476,1080C660.317,1080,650.159,1080,640,1080C629.841,1080,619.683,1080,609.524,1080C599.365,1080,589.206,1080,579.048,1080C568.889,1080,558.73,1080,548.571,1080C538.413,1080,528.254,1080,518.095,1080C507.937,1080,497.778,1080,487.619,1080C477.46,1080,467.302,1080,457.143,1080C446.984,1080,436.825,1080,426.667,1080C416.508,1080,406.349,1080,396.19,1080C386.032,1080,375.873,1080,365.714,1080C355.556,1080,345.397,1080,335.238,1080C325.079,1080,314.921,1080,304.762,1080C294.603,1080,284.444,1080,274.286,1080C264.127,1080,253.968,1080,243.81,1080C233.651,1080,223.492,1080,213.333,1080C203.175,1080,193.016,1080,182.857,1080C172.698,1080,162.54,1080,152.381,1080C142.222,1080,132.063,1080,121.905,1080C111.746,1080,101.587,1080,91.429,1080C81.27,1080,71.111,1080,60.952,1080C50.794,1080,40.635,1080,30.476,1080C20.317,1080,10.159,1080,5.079,1080L0,1080Z"></path></g><g transform="translate(0, 270)"><path fill="rgb(108, 175, 255)" fill-opacity="1" d="M0,152.36L5.079,152.238C10.159,152.116,20.317,151.873,30.476,149.223C40.635,146.574,50.794,141.518,60.952,137.082C71.111,132.647,81.27,128.83,91.429,110.669C101.587,92.509,111.746,60.004,121.905,40.594C132.063,21.184,142.222,14.868,152.381,23.887C162.54,32.905,172.698,57.257,182.857,72.566C193.016,87.875,203.175,94.141,213.333,95.561C223.492,96.981,233.651,93.555,243.81,101.558C253.968,109.562,264.127,128.995,274.286,142.998C284.444,157.001,294.603,165.574,304.762,178.996C314.921,192.417,325.079,210.687,335.238,207.567C345.397,204.447,355.556,179.938,365.714,154.594C375.873,129.25,386.032,103.072,396.19,103.725C406.349,104.377,416.508,131.861,426.667,127.495C436.825,123.129,446.984,86.915,457.143,96.743C467.302,106.572,477.46,162.444,487.619,173.411C497.778,184.378,507.937,150.441,518.095,158.001C528.254,165.562,538.413,214.621,548.571,235.298C558.73,255.974,568.889,248.268,579.048,226.635C589.206,205.002,599.365,169.442,609.524,167.261C619.683,165.079,629.841,196.275,640,193.713C650.159,191.15,660.317,154.828,670.476,139.892C680.635,124.957,690.794,131.408,700.952,117.279C711.111,103.151,721.27,68.444,731.429,74.091C741.587,79.738,751.746,125.738,761.905,120.176C772.063,114.613,782.222,57.486,792.381,48.726C802.54,39.965,812.698,79.57,822.857,116.193C833.016,152.815,843.175,186.456,853.333,167.109C863.492,147.761,873.651,75.426,883.81,71.409C893.968,67.393,904.127,131.696,914.286,141.858C924.444,152.021,934.603,108.043,944.762,96.588C954.921,85.132,965.079,106.198,975.238,112.457C985.397,118.716,995.556,110.167,1005.714,126.368C1015.873,142.569,1026.032,183.519,1036.19,170.167C1046.349,156.815,1056.508,89.161,1066.667,84.989C1076.825,80.818,1086.984,140.13,1097.143,159.513C1107.302,178.896,1117.46,158.351,1127.619,165.753C1137.778,173.156,1147.937,208.507,1158.095,208.996C1168.254,209.486,1178.413,175.116,1188.571,136.454C1198.73,97.793,1208.889,54.84,1219.048,51.488C1229.206,48.136,1239.365,84.384,1249.524,121.794C1259.683,159.204,1269.841,197.777,1280,186.863C1290.159,175.949,1300.317,115.548,1310.476,86.373C1320.635,57.199,1330.794,59.251,1340.952,83.705C1351.111,108.16,1361.27,155.017,1371.429,185.994C1381.587,216.972,1391.746,232.069,1401.905,220.523C1412.063,208.977,1422.222,170.788,1432.381,167.951C1442.54,165.115,1452.698,197.631,1462.857,196.7C1473.016,195.769,1483.175,161.39,1493.333,158.831C1503.492,156.271,1513.651,185.531,1523.81,192.54C1533.968,199.55,1544.127,184.309,1554.286,163.307C1564.444,142.306,1574.603,115.545,1584.762,100.112C1594.921,84.678,1605.079,80.572,1615.238,67.909C1625.397,55.245,1635.556,34.024,1645.714,59.809C1655.873,85.595,1666.032,158.387,1676.19,199.002C1686.349,239.617,1696.508,248.056,1706.667,216.873C1716.825,185.69,1726.984,114.886,1737.143,78.901C1747.302,42.915,1757.46,41.749,1767.619,38.734C1777.778,35.719,1787.937,30.856,1798.095,37.823C1808.254,44.789,1818.413,63.586,1828.571,74.946C1838.73,86.306,1848.889,90.229,1859.048,86.601C1869.206,82.972,1879.365,71.791,1889.524,65.322C1899.683,58.853,1909.841,57.096,1914.921,56.217L1920,55.338L1920,810L1914.921,810C1909.841,810,1899.683,810,1889.524,810C1879.365,810,1869.206,810,1859.048,810C1848.889,810,1838.73,810,1828.571,810C1818.413,810,1808.254,810,1798.095,810C1787.937,810,1777.778,810,1767.619,810C1757.46,810,1747.302,810,1737.143,810C1726.984,810,1716.825,810,1706.667,810C1696.508,810,1686.349,810,1676.19,810C1666.032,810,1655.873,810,1645.714,810C1635.556,810,1625.397,810,1615.238,810C1605.079,810,1594.921,810,1584.762,810C1574.603,810,1564.444,810,1554.286,810C1544.127,810,1533.968,810,1523.81,810C1513.651,810,1503.492,810,1493.333,810C1483.175,810,1473.016,810,1462.857,810C1452.698,810,1442.54,810,1432.381,810C1422.222,810,1412.063,810,1401.905,810C1391.746,810,1381.587,810,1371.429,810C1361.27,810,1351.111,810,1340.952,810C1330.794,810,1320.635,810,1310.476,810C1300.317,810,1290.159,810,1280,810C1269.841,810,1259.683,810,1249.524,810C1239.365,810,1229.206,810,1219.048,810C1208.889,810,1198.73,810,1188.571,810C1178.413,810,1168.254,810,1158.095,810C1147.937,810,1137.778,810,1127.619,810C1117.46,810,1107.302,810,1097.143,810C1086.984,810,1076.825,810,1066.667,810C1056.508,810,1046.349,810,1036.19,810C1026.032,810,1015.873,810,1005.714,810C995.556,810,985.397,810,975.238,810C965.079,810,954.921,810,944.762,810C934.603,810,924.444,810,914.286,810C904.127,810,893.968,810,883.81,810C873.651,810,863.492,810,853.333,810C843.175,810,833.016,810,822.857,810C812.698,810,802.54,810,792.381,810C782.222,810,772.063,810,761.905,810C751.746,810,741.587,810,731.429,810C721.27,810,711.111,810,700.952,810C690.794,810,680.635,810,670.476,810C660.317,810,650.159,810,640,810C629.841,810,619.683,810,609.524,810C599.365,810,589.206,810,579.048,810C568.889,810,558.73,810,548.571,810C538.413,810,528.254,810,518.095,810C507.937,810,497.778,810,487.619,810C477.46,810,467.302,810,457.143,810C446.984,810,436.825,810,426.667,810C416.508,810,406.349,810,396.19,810C386.032,810,375.873,810,365.714,810C355.556,810,345.397,810,335.238,810C325.079,810,314.921,810,304.762,810C294.603,810,284.444,810,274.286,810C264.127,810,253.968,810,243.81,810C233.651,810,223.492,810,213.333,810C203.175,810,193.016,810,182.857,810C172.698,810,162.54,810,152.381,810C142.222,810,132.063,810,121.905,810C111.746,810,101.587,810,91.429,810C81.27,810,71.111,810,60.952,810C50.794,810,40.635,810,30.476,810C20.317,810,10.159,810,5.079,810L0,810Z"></path></g><g transform="translate(0, 540)"><path fill="rgb(100, 166, 255)" fill-opacity="1" d="M0,128.911L5.079,137.036C10.159,145.162,20.317,161.412,30.476,184.512C40.635,207.613,50.794,237.563,60.952,215.163C71.111,192.763,81.27,118.013,91.429,80.897C101.587,43.78,111.746,44.298,121.905,45.632C132.063,46.966,142.222,49.117,152.381,78.094C162.54,107.071,172.698,162.873,182.857,179.58C193.016,196.287,203.175,173.898,213.333,163.396C223.492,152.895,233.651,154.281,243.81,143.174C253.968,132.066,264.127,108.466,274.286,125.562C284.444,142.658,294.603,200.451,304.762,186.412C314.921,172.373,325.079,86.502,335.238,60.126C345.397,33.75,355.556,66.87,365.714,69.725C375.873,72.58,386.032,45.17,396.19,58.255C406.349,71.34,416.508,124.918,426.667,142.84C436.825,160.761,446.984,143.025,457.143,117.244C467.302,91.463,477.46,57.637,487.619,60.022C497.778,62.408,507.937,101.006,518.095,116.705C528.254,132.404,538.413,125.204,548.571,138.258C558.73,151.311,568.889,184.617,579.048,180.138C589.206,175.659,599.365,133.395,609.524,115.942C619.683,98.49,629.841,105.849,640,127.983C650.159,150.117,660.317,187.025,670.476,174.62C680.635,162.216,690.794,100.499,700.952,78.833C711.111,57.167,721.27,75.552,731.429,99.98C741.587,124.408,751.746,154.879,761.905,179.327C772.063,203.775,782.222,222.2,792.381,230.236C802.54,238.273,812.698,235.921,822.857,196.639C833.016,157.356,843.175,81.143,853.333,56.743C863.492,32.343,873.651,59.756,883.81,77.066C893.968,94.376,904.127,101.583,914.286,106.188C924.444,110.792,934.603,112.794,944.762,135.395C954.921,157.996,965.079,201.196,975.238,200.245C985.397,199.295,995.556,154.193,1005.714,145.443C1015.873,136.693,1026.032,164.295,1036.19,166.821C1046.349,169.348,1056.508,146.799,1066.667,123.148C1076.825,99.497,1086.984,74.744,1097.143,89.671C1107.302,104.599,1117.46,159.208,1127.619,185.457C1137.778,211.707,1147.937,209.597,1158.095,188.441C1168.254,167.286,1178.413,127.084,1188.571,114.916C1198.73,102.747,1208.889,118.613,1219.048,114.501C1229.206,110.389,1239.365,86.3,1249.524,103.931C1259.683,121.561,1269.841,180.912,1280,208.969C1290.159,237.026,1300.317,233.789,1310.476,214.642C1320.635,195.495,1330.794,160.436,1340.952,160.952C1351.111,161.467,1361.27,197.556,1371.429,205.14C1381.587,212.724,1391.746,191.802,1401.905,167.705C1412.063,143.607,1422.222,116.332,1432.381,130.869C1442.54,145.405,1452.698,201.751,1462.857,205.702C1473.016,209.652,1483.175,161.207,1493.333,144.212C1503.492,127.218,1513.651,141.674,1523.81,136.509C1533.968,131.345,1544.127,106.56,1554.286,124.361C1564.444,142.162,1574.603,202.548,1584.762,223.882C1594.921,245.216,1605.079,227.498,1615.238,199.499C1625.397,171.499,1635.556,133.217,1645.714,117.703C1655.873,102.189,1666.032,109.443,1676.19,115.552C1686.349,121.661,1696.508,126.626,1706.667,134.43C1716.825,142.234,1726.984,152.878,1737.143,153.533C1747.302,154.187,1757.46,144.853,1767.619,135.905C1777.778,126.957,1787.937,118.395,1798.095,130.205C1808.254,142.015,1818.413,174.196,1828.571,182.624C1838.73,191.052,1848.889,175.727,1859.048,148.959C1869.206,122.192,1879.365,83.983,1889.524,72.752C1899.683,61.521,1909.841,77.267,1914.921,85.14L1920,93.013L1920,540L1914.921,540C1909.841,540,1899.683,540,1889.524,540C1879.365,540,1869.206,540,1859.048,540C1848.889,540,1838.73,540,1828.571,540C1818.413,540,1808.254,540,1798.095,540C1787.937,540,1777.778,540,1767.619,540C1757.46,540,1747.302,540,1737.143,540C1726.984,540,1716.825,540,1706.667,540C1696.508,540,1686.349,540,1676.19,540C1666.032,540,1655.873,540,1645.714,540C1635.556,540,1625.397,540,1615.238,540C1605.079,540,1594.921,540,1584.762,540C1574.603,540,1564.444,540,1554.286,540C1544.127,540,1533.968,540,1523.81,540C1513.651,540,1503.492,540,1493.333,540C1483.175,540,1473.016,540,1462.857,540C1452.698,540,1442.54,540,1432.381,540C1422.222,540,1412.063,540,1401.905,540C1391.746,540,1381.587,540,1371.429,540C1361.27,540,1351.111,540,1340.952,540C1330.794,540,1320.635,540,1310.476,540C1300.317,540,1290.159,540,1280,540C1269.841,540,1259.683,540,1249.524,540C1239.365,540,1229.206,540,1219.048,540C1208.889,540,1198.73,540,1188.571,540C1178.413,540,1168.254,540,1158.095,540C1147.937,540,1137.778,540,1127.619,540C1117.46,540,1107.302,540,1097.143,540C1086.984,540,1076.825,540,1066.667,540C1056.508,540,1046.349,540,1036.19,540C1026.032,540,1015.873,540,1005.714,540C995.556,540,985.397,540,975.238,540C965.079,540,954.921,540,944.762,540C934.603,540,924.444,540,914.286,540C904.127,540,893.968,540,883.81,540C873.651,540,863.492,540,853.333,540C843.175,540,833.016,540,822.857,540C812.698,540,802.54,540,792.381,540C782.222,540,772.063,540,761.905,540C751.746,540,741.587,540,731.429,540C721.27,540,711.111,540,700.952,540C690.794,540,680.635,540,670.476,540C660.317,540,650.159,540,640,540C629.841,540,619.683,540,609.524,540C599.365,540,589.206,540,579.048,540C568.889,540,558.73,540,548.571,540C538.413,540,528.254,540,518.095,540C507.937,540,497.778,540,487.619,540C477.46,540,467.302,540,457.143,540C446.984,540,436.825,540,426.667,540C416.508,540,406.349,540,396.19,540C386.032,540,375.873,540,365.714,540C355.556,540,345.397,540,335.238,540C325.079,540,314.921,540,304.762,540C294.603,540,284.444,540,274.286,540C264.127,540,253.968,540,243.81,540C233.651,540,223.492,540,213.333,540C203.175,540,193.016,540,182.857,540C172.698,540,162.54,540,152.381,540C142.222,540,132.063,540,121.905,540C111.746,540,101.587,540,91.429,540C81.27,540,71.111,540,60.952,540C50.794,540,40.635,540,30.476,540C20.317,540,10.159,540,5.079,540L0,540Z"></path></g><g transform="translate(0, 810)"><path fill="rgb(92, 156, 255)" fill-opacity="1" d="M0,106.163L5.079,111.32C10.159,116.477,20.317,126.792,30.476,123.184C40.635,119.576,50.794,102.046,60.952,93.699C71.111,85.353,81.27,86.19,91.429,88.986C101.587,91.783,111.746,96.538,121.905,96.613C132.063,96.688,142.222,92.081,152.381,104.153C162.54,116.225,172.698,144.976,182.857,138.58C193.016,132.185,203.175,90.643,213.333,75.771C223.492,60.898,233.651,72.695,243.81,92.238C253.968,111.78,264.127,139.069,274.286,137.656C284.444,136.243,294.603,106.129,304.762,92.064C314.921,78,325.079,79.985,335.238,105.732C345.397,131.479,355.556,180.988,365.714,182.849C375.873,184.711,386.032,138.925,396.19,103.697C406.349,68.469,416.508,43.8,426.667,48.771C436.825,53.743,446.984,88.355,457.143,117.181C467.302,146.008,477.46,169.047,487.619,192.618C497.778,216.188,507.937,240.29,518.095,213.634C528.254,186.977,538.413,109.563,548.571,108.454C558.73,107.345,568.889,182.541,579.048,200.6C589.206,218.659,599.365,179.582,609.524,143.681C619.683,107.78,629.841,75.056,640,54.873C650.159,34.689,660.317,27.046,670.476,36.107C680.635,45.168,690.794,70.932,700.952,109.79C711.111,148.649,721.27,200.601,731.429,184.488C741.587,168.375,751.746,84.197,761.905,50.158C772.063,16.119,782.222,32.219,792.381,68.855C802.54,105.492,812.698,162.666,822.857,194.917C833.016,227.168,843.175,234.496,853.333,219.009C863.492,203.521,873.651,165.219,883.81,140.705C893.968,116.191,904.127,105.466,914.286,84.847C924.444,64.228,934.603,33.715,944.762,42.386C954.921,51.058,965.079,98.913,975.238,99.023C985.397,99.134,995.556,51.5,1005.714,71.202C1015.873,90.903,1026.032,177.94,1036.19,179.275C1046.349,180.609,1056.508,96.241,1066.667,71.611C1076.825,46.981,1086.984,82.088,1097.143,98.26C1107.302,114.432,1117.46,111.669,1127.619,107.834C1137.778,103.999,1147.937,99.093,1158.095,95.028C1168.254,90.962,1178.413,87.738,1188.571,108.106C1198.73,128.473,1208.889,172.433,1219.048,162.397C1229.206,152.362,1239.365,88.331,1249.524,79.625C1259.683,70.92,1269.841,117.54,1280,147.635C1290.159,177.73,1300.317,191.301,1310.476,175.394C1320.635,159.487,1330.794,114.102,1340.952,89.93C1351.111,65.758,1361.27,62.798,1371.429,63.846C1381.587,64.894,1391.746,69.949,1401.905,66.783C1412.063,63.617,1422.222,52.229,1432.381,53.099C1442.54,53.969,1452.698,67.097,1462.857,100.047C1473.016,132.997,1483.175,185.769,1493.333,207.658C1503.492,229.548,1513.651,220.555,1523.81,193.195C1533.968,165.835,1544.127,120.108,1554.286,112.239C1564.444,104.369,1574.603,134.356,1584.762,140.678C1594.921,146.999,1605.079,129.656,1615.238,129.328C1625.397,129,1635.556,145.688,1645.714,161.634C1655.873,177.58,1666.032,192.785,1676.19,208.256C1686.349,223.727,1696.508,239.465,1706.667,229.699C1716.825,219.933,1726.984,184.664,1737.143,143.813C1747.302,102.962,1757.46,56.53,1767.619,62.848C1777.778,69.166,1787.937,128.235,1798.095,170.132C1808.254,212.03,1818.413,236.756,1828.571,218.39C1838.73,200.024,1848.889,138.565,1859.048,127.678C1869.206,116.792,1879.365,156.478,1889.524,170.119C1899.683,183.761,1909.841,171.358,1914.921,165.157L1920,158.956L1920,270L1914.921,270C1909.841,270,1899.683,270,1889.524,270C1879.365,270,1869.206,270,1859.048,270C1848.889,270,1838.73,270,1828.571,270C1818.413,270,1808.254,270,1798.095,270C1787.937,270,1777.778,270,1767.619,270C1757.46,270,1747.302,270,1737.143,270C1726.984,270,1716.825,270,1706.667,270C1696.508,270,1686.349,270,1676.19,270C1666.032,270,1655.873,270,1645.714,270C1635.556,270,1625.397,270,1615.238,270C1605.079,270,1594.921,270,1584.762,270C1574.603,270,1564.444,270,1554.286,270C1544.127,270,1533.968,270,1523.81,270C1513.651,270,1503.492,270,1493.333,270C1483.175,270,1473.016,270,1462.857,270C1452.698,270,1442.54,270,1432.381,270C1422.222,270,1412.063,270,1401.905,270C1391.746,270,1381.587,270,1371.429,270C1361.27,270,1351.111,270,1340.952,270C1330.794,270,1320.635,270,1310.476,270C1300.317,270,1290.159,270,1280,270C1269.841,270,1259.683,270,1249.524,270C1239.365,270,1229.206,270,1219.048,270C1208.889,270,1198.73,270,1188.571,270C1178.413,270,1168.254,270,1158.095,270C1147.937,270,1137.778,270,1127.619,270C1117.46,270,1107.302,270,1097.143,270C1086.984,270,1076.825,270,1066.667,270C1056.508,270,1046.349,270,1036.19,270C1026.032,270,1015.873,270,1005.714,270C995.556,270,985.397,270,975.238,270C965.079,270,954.921,270,944.762,270C934.603,270,924.444,270,914.286,270C904.127,270,893.968,270,883.81,270C873.651,270,863.492,270,853.333,270C843.175,270,833.016,270,822.857,270C812.698,270,802.54,270,792.381,270C782.222,270,772.063,270,761.905,270C751.746,270,741.587,270,731.429,270C721.27,270,711.111,270,700.952,270C690.794,270,680.635,270,670.476,270C660.317,270,650.159,270,640,270C629.841,270,619.683,270,609.524,270C599.365,270,589.206,270,579.048,270C568.889,270,558.73,270,548.571,270C538.413,270,528.254,270,518.095,270C507.937,270,497.778,270,487.619,270C477.46,270,467.302,270,457.143,270C446.984,270,436.825,270,426.667,270C416.508,270,406.349,270,396.19,270C386.032,270,375.873,270,365.714,270C355.556,270,345.397,270,335.238,270C325.079,270,314.921,270,304.762,270C294.603,270,284.444,270,274.286,270C264.127,270,253.968,270,243.81,270C233.651,270,223.492,270,213.333,270C203.175,270,193.016,270,182.857,270C172.698,270,162.54,270,152.381,270C142.222,270,132.063,270,121.905,270C111.746,270,101.587,270,91.429,270C81.27,270,71.111,270,60.952,270C50.794,270,40.635,270,30.476,270C20.317,270,10.159,270,5.079,270L0,270Z"></path></g></g></svg>